<?xml version="1.0" encoding="utf-8"?>
<!-- Generator: Adobe Illustrator 22.0.1, SVG Export Plug-In . SVG Version: 6.00 Build 0)  -->
<svg version="1.1" id="Layer_1" xmlns="http://www.w3.org/2000/svg" xmlns:xlink="http://www.w3.org/1999/xlink" x="0px" y="0px"
	 viewBox="0 0 278.5 146.6" style="enable-background:new 0 0 278.5 146.6;" xml:space="preserve">
<style type="text/css">
	.st0{clip-path:url(#SVGID_2_);}
	.st1{enable-background:new    ;}
	.st2{fill:none;stroke:#231F20;stroke-width:1.6;stroke-miterlimit:13.54;}
	.st3{fill:#231F20;}
</style>
<title>FinalLogo</title>
<g>
	<defs>
		<rect id="SVGID_1_" x="-14.8" y="-31.5" width="311.8" height="198.4"/>
	</defs>
	<clipPath id="SVGID_2_">
		<use xlink:href="#SVGID_1_"  style="overflow:visible;"/>
	</clipPath>
	<g class="st0">
		<g class="st1">
			<path class="st2" d="M15.7,56.5c-2.6,0-4.7-0.5-6.6-1.4c-1.8-1-3.2-2.3-4.1-4.2c-0.9-1.8-1.4-4-1.5-6.6c0-0.1,0-0.2,0-0.3
				c0-0.1,0-0.2,0-0.3h6.5c0,2.4,0.4,4.2,1.2,5.5c0.8,1.3,2.3,1.9,4.5,1.9c1.2,0,2.2-0.4,3-1.1c0.8-0.8,1.4-1.9,1.8-3.5
				c0.4-1.6,0.6-3.5,0.6-5.9V33c-0.6,1-1.5,1.8-2.7,2.5c-1.2,0.6-2.7,0.9-4.5,0.9c-2.7,0-4.9-0.6-6.4-1.8c-1.5-1.2-2.6-2.9-3.3-5
				c-0.6-2.1-0.9-4.6-0.9-7.5c0-3,0.4-5.7,1.2-8.1c0.8-2.4,2.1-4.3,3.9-5.8c1.8-1.4,4.2-2.1,7.1-2.1c2.8,0,5.2,0.7,6.9,2.2
				c1.8,1.4,3.1,3.4,3.9,5.8c0.8,2.4,1.2,5.2,1.2,8.2v16.6c0,3.2-0.4,6.1-1.1,8.8c-0.7,2.7-2,4.8-3.7,6.4
				C21.3,55.7,18.9,56.5,15.7,56.5z M15.7,31.5c1.4,0,2.6-0.4,3.5-1.1c0.9-0.7,1.6-1.5,2.1-2.3v-7.3c0-1.7-0.2-3.3-0.5-4.7
				c-0.3-1.4-0.9-2.5-1.7-3.4c-0.8-0.8-1.9-1.2-3.4-1.2c-1.4,0-2.5,0.4-3.4,1.3c-0.8,0.9-1.4,2-1.8,3.3c-0.3,1.4-0.5,2.9-0.5,4.5
				c0,1.9,0.1,3.8,0.3,5.4c0.2,1.7,0.7,3,1.5,4C12.6,31,13.9,31.5,15.7,31.5z"/>
			<path class="st2" d="M32.2,56l10.3-25.8L32.4,6.6h6.4L46.3,24l6.8-17.4h6.4L49.1,30.7L60,56h-6.4l-8-18.6L38.6,56H32.2z"/>
			<path class="st2" d="M75.6,56.4c-3,0-5.3-0.6-7.1-1.7c-1.7-1.1-3-2.8-3.7-4.9c-0.8-2.2-1.1-4.7-1.1-7.7h6.5
				c0,1.5,0.1,2.9,0.4,4.3s0.8,2.6,1.6,3.5c0.8,0.9,2,1.4,3.6,1.4c1.8,0,3.1-0.5,3.8-1.6c0.8-1,1.3-2.4,1.5-4.2
				c0.2-1.8,0.3-3.8,0.3-6c0-2.2-0.1-4.1-0.4-5.7c-0.2-1.6-0.8-2.8-1.5-3.6c-0.8-0.8-2-1.2-3.7-1.2c-1.3,0-2.5,0.4-3.4,1.2
				C71.4,31,70.7,32,70.3,33h-5.5V6.6H86v6.5H70.6l-0.4,13.7c0.8-0.9,1.8-1.5,3-2c1.2-0.5,2.6-0.7,4.1-0.7c2.7,0,4.8,0.6,6.3,1.9
				c1.5,1.3,2.6,3,3.2,5.2c0.6,2.2,0.9,4.7,0.9,7.6c0,2.5-0.2,4.9-0.5,7c-0.4,2.2-1,4.1-1.9,5.7c-0.9,1.6-2.2,2.9-3.7,3.7
				C80,56,78,56.4,75.6,56.4z"/>
		</g>
	</g>
</g>
<g>
	<g class="st1">
		<path class="st3" d="M2,129.1l10.5-49.4h6.6l10.5,49.4h-6.5l-2.3-12.4H10.8l-2.4,12.4H2z M11.7,111.7h8.2l-4.1-22.2L11.7,111.7z"
			/>
		<path class="st3" d="M34.6,129.1V79.7h9.9c3.3,0,6,0.4,8.2,1.3c2.2,0.9,3.7,2.3,4.8,4.2c1,1.9,1.6,4.5,1.6,7.6
			c0,1.9-0.2,3.6-0.6,5.2c-0.4,1.6-1.1,2.9-2,4c-0.9,1.1-2.1,1.9-3.5,2.3l7,24.7h-6.6l-6.5-23.2h-5.4v23.2H34.6z M41.5,101h2.6
			c2,0,3.5-0.2,4.8-0.7c1.2-0.5,2.1-1.3,2.7-2.5c0.6-1.2,0.9-2.8,0.9-4.9c0-2.9-0.5-5-1.6-6.2c-1.1-1.3-3.1-1.9-6.3-1.9h-3V101z"/>
		<path class="st3" d="M78.6,129.6c-3.5,0-6.2-0.7-8.1-2.2c-1.9-1.5-3.3-3.4-4-5.9c-0.8-2.5-1.1-5.2-1.1-8.3V95.8
			c0-3.3,0.4-6.2,1.1-8.7c0.8-2.5,2.1-4.4,4-5.8c1.9-1.4,4.6-2,8.1-2c3.1,0,5.5,0.6,7.3,1.7c1.8,1.1,3.1,2.8,3.9,4.9
			c0.8,2.1,1.2,4.7,1.2,7.6v3.9h-6.5v-3.5c0-1.8-0.1-3.4-0.3-4.8c-0.2-1.4-0.7-2.5-1.5-3.3c-0.8-0.8-2.2-1.2-4.1-1.2
			c-2,0-3.4,0.4-4.3,1.2c-0.9,0.8-1.5,2-1.7,3.5c-0.3,1.5-0.4,3.3-0.4,5.3v19.6c0,2.5,0.2,4.4,0.6,5.9c0.4,1.4,1.1,2.5,2,3.1
			c0.9,0.6,2.2,0.9,3.8,0.9c1.9,0,3.2-0.4,4-1.2c0.8-0.8,1.3-2,1.5-3.4c0.2-1.5,0.3-3.2,0.3-5.1v-3.7h6.5v3.7c0,3-0.4,5.7-1.1,8
			s-2,4.1-3.8,5.4C84.4,129,81.9,129.6,78.6,129.6z"/>
		<path class="st3" d="M97.6,129.1V79.7h6.9v21.3h12.7V79.7h6.9v49.4h-6.9V106h-12.7v23.1H97.6z"/>
		<path class="st3" d="M132.2,129.1V79.7h6.8v49.4H132.2z"/>
		<path class="st3" d="M152.4,129.1V84.8H144v-5.1h23.3v5.1h-8.1v44.2H152.4z"/>
		<path class="st3" d="M172.1,129.1V79.7h19.1v5.1H179v16.3h9.9v4.9H179v18.1h12.4v4.9H172.1z"/>
		<path class="st3" d="M209.3,129.6c-3.5,0-6.2-0.7-8.1-2.2c-1.9-1.5-3.3-3.4-4-5.9c-0.8-2.5-1.1-5.2-1.1-8.3V95.8
			c0-3.3,0.4-6.2,1.1-8.7c0.8-2.5,2.1-4.4,4-5.8c1.9-1.4,4.6-2,8.1-2c3.1,0,5.5,0.6,7.3,1.7c1.8,1.1,3.1,2.8,3.9,4.9
			c0.8,2.1,1.2,4.7,1.2,7.6v3.9h-6.5v-3.5c0-1.8-0.1-3.4-0.3-4.8c-0.2-1.4-0.7-2.5-1.5-3.3c-0.8-0.8-2.2-1.2-4.1-1.2
			c-2,0-3.4,0.4-4.3,1.2c-0.9,0.8-1.5,2-1.7,3.5c-0.3,1.5-0.4,3.3-0.4,5.3v19.6c0,2.5,0.2,4.4,0.6,5.9c0.4,1.4,1.1,2.5,2,3.1
			c0.9,0.6,2.2,0.9,3.8,0.9c1.9,0,3.2-0.4,4-1.2s1.3-2,1.5-3.4c0.2-1.5,0.3-3.2,0.3-5.1v-3.7h6.5v3.7c0,3-0.4,5.7-1.1,8
			s-2,4.1-3.8,5.4C215,129,212.5,129.6,209.3,129.6z"/>
		<path class="st3" d="M233.7,129.1V84.8h-8.3v-5.1h23.3v5.1h-8.1v44.2H233.7z"/>
		<path class="st3" d="M265.1,129.6c-2.8,0-5.2-0.6-7.1-1.8c-1.9-1.2-3.3-2.9-4.3-5.1c-1-2.2-1.5-4.7-1.7-7.5l6.1-1.6
			c0.1,1.7,0.4,3.4,0.8,5.1c0.4,1.6,1.1,3,2.1,4c1,1,2.3,1.6,4.1,1.6c1.8,0,3.1-0.5,4.1-1.5c0.9-1,1.4-2.4,1.4-4.3
			c0-2.2-0.5-4-1.5-5.4c-1-1.4-2.3-2.7-3.8-4.1l-8.3-7.3c-1.6-1.4-2.8-3-3.6-4.7c-0.8-1.7-1.2-3.8-1.2-6.2c0-3.6,1-6.4,3.1-8.4
			c2.1-2,4.9-3,8.5-3c2,0,3.7,0.3,5.1,0.8c1.5,0.5,2.7,1.3,3.7,2.3c1,1.1,1.8,2.4,2.4,4c0.6,1.6,1,3.5,1.2,5.6l-5.9,1.6
			c-0.1-1.6-0.4-3.1-0.7-4.5c-0.4-1.4-1-2.5-1.9-3.3c-0.9-0.8-2.2-1.2-3.9-1.2c-1.7,0-3,0.5-4,1.4c-1,0.9-1.4,2.3-1.4,4.1
			c0,1.5,0.3,2.7,0.8,3.7c0.5,1,1.3,2,2.5,3l8.3,7.3c1.9,1.6,3.5,3.6,4.9,5.8c1.4,2.3,2.1,4.9,2.1,8c0,2.4-0.5,4.5-1.5,6.3
			c-1,1.8-2.4,3.1-4.2,4.1C269.5,129.2,267.4,129.6,265.1,129.6z"/>
	</g>
</g>
</svg>
